<mxfile host="app.diagrams.net" modified="2024-04-16T11:52:11.906Z" agent="Mozilla/5.0 (Windows NT 10.0; Win64; x64) AppleWebKit/537.36 (KHTML, like Gecko) Chrome/121.0.0.0 Safari/537.36 OPR/107.0.0.0" version="24.2.5" etag="8tnmW1QMuPbIHplsLPXK" type="github">
  <diagram name="Страница — 1" id="pntM4rxEE5JolDIXJxf1">
    <mxGraphModel>
      <root>
        <mxCell id="0" />
        <mxCell id="1" parent="0" />
      </root>
    </mxGraphModel>
  </diagram>
</mxfile>
